<svg xmlns="http://www.w3.org/2000/svg" xmlns:xlink="http://www.w3.org/1999/xlink" id="body" height="1239"><g><g><g><path transform="matrix(1 0 0 -1 0 697)" clip-path="url(#114)" d="M-34.0157 697.37933L-8.560701 697.37933L-8.560701 697.37933L-8.560701 697.66235L-8.560701 697.66235L-34.0157 697.66235z" stroke="none" fill="#000000" fill-rule="winding" /><path transform="matrix(1 0 0 -1 0 697)" clip-path="url(#115)" d="M-0.3397026 705.8833L-0.05670166 705.8833L-0.05670166 705.8833L-0.05670166 731.3383L-0.05670166 731.3383L-0.3397026 731.3383z" stroke="none" fill="#000000" fill-rule="winding" /><path transform="matrix(1 0 0 -1 0 697)" clip-path="url(#116)" d="M484.7243 705.8833L485.0083 705.8833L485.0083 705.8833L485.0083 731.3383L485.0083 731.3383L484.7243 731.3383z" stroke="none" fill="#000000" fill-rule="winding" /><g><path transform="matrix(1 0 0 -1 0 697)" clip-path="url(#117)" d="M493.22833 697.37933L518.70435 697.37933L518.70435 697.37933L518.70435 697.66235L518.70435 697.66235L493.22833 697.66235z" stroke="none" fill="#000000" fill-rule="winding" /><path transform="matrix(1 0 0 -1 0 697)" clip-path="url(#118)" d="M493.22833 -0.28370285L518.70435 -0.28370285L518.70435 -0.28370285L518.70435 -0.0007019043L518.70435 -0.0007019043L493.22833 -0.0007019043z" stroke="none" fill="#000000" fill-rule="winding" /><path transform="matrix(1 0 0 -1 0 697)" clip-path="url(#119)" d="M484.7243 -34.0007L485.0083 -34.0007L485.0083 -34.0007L485.0083 -8.503702L485.0083 -8.503702L484.7243 -8.503702z" stroke="none" fill="#000000" fill-rule="winding" /><path transform="matrix(1 0 0 -1 0 697)" clip-path="url(#120)" d="M-0.3397026 -34.0007L-0.05670166 -34.0007L-0.05670166 -34.0007L-0.05670166 -8.503702L-0.05670166 -8.503702L-0.3397026 -8.503702z" stroke="none" fill="#000000" fill-rule="winding" /></g><path transform="matrix(1 0 0 -1 0 697)" clip-path="url(#121)" d="M-34.0157 -0.28370285L-8.560701 -0.28370285L-8.560701 -0.28370285L-8.560701 -0.0007019043L-8.560701 -0.0007019043L-34.0157 -0.0007019043z" stroke="none" fill="#000000" fill-rule="winding" /></g><g></g></g></g><defs><clipPath id="1"><path d="M0 0L484.7243 0L484.7243 697.3223L0 697.3223z" /></clipPath><clipPath id="2"><path d="M0 0L484.7243 0L484.7243 697.3223L0 697.3223z" /></clipPath><clipPath id="3"><path d="M0 0L484.7243 0L484.7243 697.3223L0 697.3223z" /></clipPath><clipPath id="4"><path d="M-34.0157 -34.00067L518.7043 -34.00067L518.7043 731.3383L-34.0157 731.3383z" /></clipPath><clipPath id="5"><path d="M-34.0157 -34.00067L518.7043 -34.00067L518.7043 731.3383L-34.0157 731.3383z" /></clipPath><clipPath id="6"><path d="M-34.0157 -34.00067L518.7043 -34.00067L518.7043 731.3383L-34.0157 731.3383z" /></clipPath><clipPath id="7"><path d="M-34.0157 -34.00067L518.7043 -34.00067L518.7043 731.3383L-34.0157 731.3383z" /></clipPath><clipPath id="8"><path d="M0 0L484.7243 0L484.7243 697.3223L0 697.3223z" /></clipPath><clipPath id="9"><path d="M-8.503702 -8.503723L493.22833 -8.503723L493.22833 705.8263L-8.503702 705.8263z" /></clipPath><clipPath id="10"><path d="M0 0L484.7243 0L484.7243 697.3223L0 697.3223z" /></clipPath><clipPath id="11"><path d="M0 0L484.7243 0L484.7243 697.3223L0 697.3223z" /></clipPath><clipPath id="12"><path d="M0 0L484.7243 0L484.7243 697.3223L0 697.3223z" /></clipPath><clipPath id="13"><path d="M0 0L484.7243 0L484.7243 697.3223L0 697.3223z" /></clipPath><clipPath id="14"><path d="M0 0L484.7243 0L484.7243 697.3223L0 697.3223z" /></clipPath><clipPath id="15"><path d="M0 0L484.7243 0L484.7243 697.3223L0 697.3223z" /></clipPath><clipPath id="16"><path d="M0 0L484.7243 0L484.7243 697.3223L0 697.3223z" /></clipPath><clipPath id="17"><path d="M0 0L484.7243 0L484.7243 697.3223L0 697.3223z" /></clipPath><clipPath id="18"><path d="M0 0L484.7243 0L484.7243 697.3223L0 697.3223z" /></clipPath><clipPath id="19"><path d="M0 0L484.7243 0L484.7243 697.3223L0 697.3223z" /></clipPath><clipPath id="20"><path d="M0 0L484.7243 0L484.7243 697.3223L0 697.3223z" /></clipPath><clipPath id="21"><path d="M0 0L484.7243 0L484.7243 697.3223L0 697.3223z" /></clipPath><clipPath id="22"><path d="M0 0L484.7243 0L484.7243 697.3223L0 697.3223z" /></clipPath><clipPath id="23"><path d="M0 0L484.7243 0L484.7243 697.3223L0 697.3223z" /></clipPath><clipPath id="24"><path d="M0 0L484.7243 0L484.7243 697.3223L0 697.3223z" /></clipPath><clipPath id="25"><path d="M0 0L484.7243 0L484.7243 697.3223L0 697.3223z" /></clipPath><clipPath id="26"><path d="M0 0L484.7243 0L484.7243 697.3223L0 697.3223z" /></clipPath><clipPath id="27"><path d="M133.51231 65.36731L295.03033 65.36731L295.03033 93.8833L133.51231 93.8833z" /></clipPath><clipPath id="28"><path d="M0 0L484.7243 0L484.7243 697.3223L0 697.3223z" /></clipPath><clipPath id="29"><path d="M0 0L484.7243 0L484.7243 697.3223L0 697.3223z" /></clipPath><clipPath id="30"><path d="M0 0L484.7243 0L484.7243 697.3223L0 697.3223z" /></clipPath><clipPath id="31"><path d="M0 0L484.7243 0L484.7243 697.3223L0 697.3223z" /></clipPath><clipPath id="32"><path d="M0 0L484.7243 0L484.7243 697.3223L0 697.3223z" /></clipPath><clipPath id="33"><path d="M0 0L484.7243 0L484.7243 697.3223L0 697.3223z" /></clipPath><clipPath id="34"><path d="M0 0L484.7243 0L484.7243 697.3223L0 697.3223z" /></clipPath><clipPath id="35"><path d="M-34.0157 -34.00067L518.7043 -34.00067L518.7043 731.3383L-34.0157 731.3383z" /></clipPath><clipPath id="36"><path d="M-34.0157 -34.00067L518.7043 -34.00067L518.7043 731.3383L-34.0157 731.3383z" /></clipPath><clipPath id="37"><path d="M-34.0157 -34.00067L518.7043 -34.00067L518.7043 731.3383L-34.0157 731.3383z" /></clipPath><clipPath id="38"><path d="M-34.0157 -34.00067L518.7043 -34.00067L518.7043 731.3383L-34.0157 731.3383z" /></clipPath><clipPath id="39"><path d="M0 0L484.7243 0L484.7243 697.3223L0 697.3223z" /></clipPath><clipPath id="40"><path d="M0 0L484.7243 0L484.7243 697.3223L0 697.3223z" /></clipPath><clipPath id="41"><path d="M0 0L484.7243 0L484.7243 697.3223L0 697.3223z" /></clipPath><clipPath id="42"><path d="M0 0L484.7243 0L484.7243 697.3223L0 697.3223z" /></clipPath><clipPath id="43"><path d="M-34.0157 -34.00067L518.7043 -34.00067L518.7043 731.3383L-34.0157 731.3383z" /></clipPath><clipPath id="44"><path d="M-34.0157 -34.00067L518.7043 -34.00067L518.7043 731.3383L-34.0157 731.3383z" /></clipPath><clipPath id="45"><path d="M-34.0157 -34.00067L518.7043 -34.00067L518.7043 731.3383L-34.0157 731.3383z" /></clipPath><clipPath id="46"><path d="M-34.0157 -34.00067L518.7043 -34.00067L518.7043 731.3383L-34.0157 731.3383z" /></clipPath><clipPath id="47"><path d="M0 0L484.7243 0L484.7243 697.3223L0 697.3223z" /></clipPath><clipPath id="48"><path d="M-8.503702 -8.503723L493.22833 -8.503723L493.22833 705.8263L-8.503702 705.8263z" /></clipPath><clipPath id="49"><path d="M0 0L484.7243 0L484.7243 697.3223L0 697.3223z" /></clipPath><clipPath id="50"><path d="M0 0L484.7243 0L484.7243 697.3223L0 697.3223z" /></clipPath><clipPath id="51"><path d="M0 0L484.7243 0L484.7243 697.3223L0 697.3223z" /></clipPath><clipPath id="52"><path d="M-34.0157 -34.00067L518.7043 -34.00067L518.7043 731.3383L-34.0157 731.3383z" /></clipPath><clipPath id="53"><path d="M-34.0157 -34.00067L518.7043 -34.00067L518.7043 731.3383L-34.0157 731.3383z" /></clipPath><clipPath id="54"><path d="M-34.0157 -34.00067L518.7043 -34.00067L518.7043 731.3383L-34.0157 731.3383z" /></clipPath><clipPath id="55"><path d="M-34.0157 -34.00067L518.7043 -34.00067L518.7043 731.3383L-34.0157 731.3383z" /></clipPath><clipPath id="56"><path d="M0 0L484.7243 0L484.7243 697.3223L0 697.3223z" /></clipPath><clipPath id="57"><path d="M0 0L484.7243 0L484.7243 697.3223L0 697.3223z" /></clipPath><clipPath id="58"><path d="M0 0L484.7243 0L484.7243 697.3223L0 697.3223z" /></clipPath><clipPath id="59"><path d="M0 0L484.7243 0L484.7243 697.3223L0 697.3223z" /></clipPath><clipPath id="60"><path d="M-34.0157 -34.00067L518.7043 -34.00067L518.7043 731.3383L-34.0157 731.3383z" /></clipPath><clipPath id="61"><path d="M-34.0157 -34.00067L518.7043 -34.00067L518.7043 731.3383L-34.0157 731.3383z" /></clipPath><clipPath id="62"><path d="M-34.0157 -34.00067L518.7043 -34.00067L518.7043 731.3383L-34.0157 731.3383z" /></clipPath><clipPath id="63"><path d="M-34.0157 -34.00067L518.7043 -34.00067L518.7043 731.3383L-34.0157 731.3383z" /></clipPath><clipPath id="64"><path d="M0 0L484.7243 0L484.7243 697.3223L0 697.3223z" /></clipPath><clipPath id="65"><path d="M-8.503702 -8.503723L493.22833 -8.503723L493.22833 705.8263L-8.503702 705.8263z" /></clipPath><clipPath id="66"><path d="M0 0L484.7243 0L484.7243 697.3223L0 697.3223z" /></clipPath><clipPath id="67"><path d="M0 0L484.7243 0L484.7243 697.3223L0 697.3223z" /></clipPath><clipPath id="68"><path d="M0 0L484.7243 0L484.7243 697.3223L0 697.3223z" /></clipPath><clipPath id="69"><path d="M0 0L484.7243 0L484.7243 697.3223L0 697.3223z" /></clipPath><clipPath id="70"><path d="M0 0L484.7243 0L484.7243 697.3223L0 697.3223z" /></clipPath><clipPath id="71"><path d="M0 0L484.7243 0L484.7243 697.3223L0 697.3223z" /></clipPath><clipPath id="72"><path d="M0 0L484.7243 0L484.7243 697.3223L0 697.3223z" /></clipPath><clipPath id="73"><path d="M0 0L484.7243 0L484.7243 697.3223L0 697.3223z" /></clipPath><clipPath id="74"><path d="M0 0L484.7243 0L484.7243 697.3223L0 697.3223z" /></clipPath><clipPath id="75"><path d="M0 0L484.7243 0L484.7243 697.3223L0 697.3223z" /></clipPath><clipPath id="76"><path d="M0 0L484.7243 0L484.7243 697.3223L0 697.3223z" /></clipPath><clipPath id="77"><path d="M0 0L484.7243 0L484.7243 697.3223L0 697.3223z" /></clipPath><clipPath id="78"><path d="M0 0L484.7243 0L484.7243 697.3223L0 697.3223z" /></clipPath><clipPath id="79"><path d="M0 0L484.7243 0L484.7243 697.3223L0 697.3223z" /></clipPath><clipPath id="80"><path d="M0 0L484.7243 0L484.7243 697.3223L0 697.3223z" /></clipPath><clipPath id="81"><path d="M0 0L484.7243 0L484.7243 697.3223L0 697.3223z" /></clipPath><clipPath id="82"><path d="M0 0L484.7243 0L484.7243 697.3223L0 697.3223z" /></clipPath><clipPath id="83"><path d="M133.51231 65.36731L295.03033 65.36731L295.03033 93.8833L133.51231 93.8833z" /></clipPath><clipPath id="84"><path d="M0 0L484.7243 0L484.7243 697.3223L0 697.3223z" /></clipPath><clipPath id="85"><path d="M0 0L484.7243 0L484.7243 697.3223L0 697.3223z" /></clipPath><clipPath id="86"><path d="M0 0L484.7243 0L484.7243 697.3223L0 697.3223z" /></clipPath><clipPath id="87"><path d="M0 0L484.7243 0L484.7243 697.3223L0 697.3223z" /></clipPath><clipPath id="88"><path d="M0 0L484.7243 0L484.7243 697.3223L0 697.3223z" /></clipPath><clipPath id="89"><path d="M0 0L484.7243 0L484.7243 697.3223L0 697.3223z" /></clipPath><clipPath id="90"><path d="M0 0L484.7243 0L484.7243 697.3223L0 697.3223z" /></clipPath><clipPath id="91"><path d="M-34.0157 -34.00067L518.7043 -34.00067L518.7043 731.3383L-34.0157 731.3383z" /></clipPath><clipPath id="92"><path d="M-34.0157 -34.00067L518.7043 -34.00067L518.7043 731.3383L-34.0157 731.3383z" /></clipPath><clipPath id="93"><path d="M-34.0157 -34.00067L518.7043 -34.00067L518.7043 731.3383L-34.0157 731.3383z" /></clipPath><clipPath id="94"><path d="M-34.0157 -34.00067L518.7043 -34.00067L518.7043 731.3383L-34.0157 731.3383z" /></clipPath><clipPath id="95"><path d="M0 0L484.7243 0L484.7243 697.3223L0 697.3223z" /></clipPath><clipPath id="96"><path d="M0 0L484.7243 0L484.7243 697.3223L0 697.3223z" /></clipPath><clipPath id="97"><path d="M0 0L484.7243 0L484.7243 697.3223L0 697.3223z" /></clipPath><clipPath id="98"><path d="M0 0L484.7243 0L484.7243 697.3223L0 697.3223z" /></clipPath><clipPath id="99"><path d="M-34.0157 -34.00067L518.7043 -34.00067L518.7043 731.3383L-34.0157 731.3383z" /></clipPath><clipPath id="100"><path d="M-34.0157 -34.00067L518.7043 -34.00067L518.7043 731.3383L-34.0157 731.3383z" /></clipPath><clipPath id="101"><path d="M-34.0157 -34.00067L518.7043 -34.00067L518.7043 731.3383L-34.0157 731.3383z" /></clipPath><clipPath id="102"><path d="M-34.0157 -34.00067L518.7043 -34.00067L518.7043 731.3383L-34.0157 731.3383z" /></clipPath><clipPath id="103"><path d="M0 0L484.7243 0L484.7243 697.3223L0 697.3223z" /></clipPath><clipPath id="104"><path d="M0 0L484.7243 0L484.7243 697.3223L0 697.3223z" /></clipPath><clipPath id="105"><path d="M0 0L484.7243 0L484.7243 697.3223L0 697.3223z" /></clipPath><clipPath id="106"><path d="M0 0L484.7243 0L484.7243 697.3223L0 697.3223z" /></clipPath><clipPath id="107"><path d="M0 0L484.7243 0L484.7243 697.3223L0 697.3223z" /></clipPath><clipPath id="108"><path d="M-34.0157 -34.00067L518.7043 -34.00067L518.7043 731.3383L-34.0157 731.3383z" /></clipPath><clipPath id="109"><path d="M-34.0157 -34.00067L518.7043 -34.00067L518.7043 731.3383L-34.0157 731.3383z" /></clipPath><clipPath id="110"><path d="M-34.0157 -34.00067L518.7043 -34.00067L518.7043 731.3383L-34.0157 731.3383z" /></clipPath><clipPath id="111"><path d="M-34.0157 -34.00067L518.7043 -34.00067L518.7043 731.3383L-34.0157 731.3383z" /></clipPath><clipPath id="112"><path d="M0 0L484.7243 0L484.7243 697.3223L0 697.3223z" /></clipPath><clipPath id="113"><path d="M0 0L484.7243 0L484.7243 697.3223L0 697.3223z" /></clipPath><clipPath id="114"><path d="M0 0L484.7243 0L484.7243 697.3223L0 697.3223z" /></clipPath><clipPath id="115"><path d="M0 0L484.7243 0L484.7243 697.3223L0 697.3223z" /></clipPath><clipPath id="116"><path d="M0 0L484.7243 0L484.7243 697.3223L0 697.3223z" /></clipPath><clipPath id="117"><path d="M-34.0157 -34.00067L518.7043 -34.00067L518.7043 731.3383L-34.0157 731.3383z" /></clipPath><clipPath id="118"><path d="M-34.0157 -34.00067L518.7043 -34.00067L518.7043 731.3383L-34.0157 731.3383z" /></clipPath><clipPath id="119"><path d="M-34.0157 -34.00067L518.7043 -34.00067L518.7043 731.3383L-34.0157 731.3383z" /></clipPath><clipPath id="120"><path d="M-34.0157 -34.00067L518.7043 -34.00067L518.7043 731.3383L-34.0157 731.3383z" /></clipPath><clipPath id="121"><path d="M0 0L484.7243 0L484.7243 697.3223L0 697.3223z" /></clipPath></defs></svg>