<svg xmlns="http://www.w3.org/2000/svg" xmlns:xlink="http://www.w3.org/1999/xlink" id="body" width="693" height="1239"><g><g><g><path transform="matrix(1 0 0 -1 0 697)" clip-path="url(#1)" d="M-34.0157 697.37933L-8.560701 697.37933L-8.560701 697.37933L-8.560701 697.66235L-8.560701 697.66235L-34.0157 697.66235z" stroke="none" fill="#000000" fill-rule="winding" /><path transform="matrix(1 0 0 -1 0 697)" clip-path="url(#2)" d="M-0.3397026 705.8833L-0.05670166 705.8833L-0.05670166 705.8833L-0.05670166 731.3383L-0.05670166 731.3383L-0.3397026 731.3383z" stroke="none" fill="#000000" fill-rule="winding" /><path transform="matrix(1 0 0 -1 0 697)" clip-path="url(#3)" d="M484.7243 705.8833L485.0083 705.8833L485.0083 705.8833L485.0083 731.3383L485.0083 731.3383L484.7243 731.3383z" stroke="none" fill="#000000" fill-rule="winding" /><g><path transform="matrix(1 0 0 -1 0 697)" clip-path="url(#4)" d="M493.22833 697.37933L518.70435 697.37933L518.70435 697.37933L518.70435 697.66235L518.70435 697.66235L493.22833 697.66235z" stroke="none" fill="#000000" fill-rule="winding" /><path transform="matrix(1 0 0 -1 0 697)" clip-path="url(#5)" d="M493.22833 -0.28370285L518.70435 -0.28370285L518.70435 -0.28370285L518.70435 -0.0007019043L518.70435 -0.0007019043L493.22833 -0.0007019043z" stroke="none" fill="#000000" fill-rule="winding" /><path transform="matrix(1 0 0 -1 0 697)" clip-path="url(#6)" d="M484.7243 -34.0007L485.0083 -34.0007L485.0083 -34.0007L485.0083 -8.503702L485.0083 -8.503702L484.7243 -8.503702z" stroke="none" fill="#000000" fill-rule="winding" /><path transform="matrix(1 0 0 -1 0 697)" clip-path="url(#7)" d="M-0.3397026 -34.0007L-0.05670166 -34.0007L-0.05670166 -34.0007L-0.05670166 -8.503702L-0.05670166 -8.503702L-0.3397026 -8.503702z" stroke="none" fill="#000000" fill-rule="winding" /></g><path transform="matrix(1 0 0 -1 0 697)" clip-path="url(#8)" d="M-34.0157 -0.28370285L-8.560701 -0.28370285L-8.560701 -0.28370285L-8.560701 -0.0007019043L-8.560701 -0.0007019043L-34.0157 -0.0007019043z" stroke="none" fill="#000000" fill-rule="winding" /><g><path transform="matrix(1 0 0 -1 0 697)" clip-path="url(#9)" d="M-8.503702 569.5933L389.5373 569.5933L389.5373 569.5933L389.5373 589.5493L389.5373 589.5493L-8.503702 589.5493z" stroke="none" fill="#000000" fill-rule="winding" /></g><path transform="matrix(1 0 0 -1 0 697)" clip-path="url(#10)" d="M133.5123 281.70728L218.15529 281.70728L218.15529 281.70728L218.15529 282.67126L218.15529 282.67126L133.5123 282.67126z" stroke="none" fill="#000000" fill-rule="winding" /><path transform="matrix(1 0 0 -1 0 697)" clip-path="url(#11)" d="M168.9223 80.128296C 168.72931 80.3303 168.7333 80.657295 168.7333 80.907295L168.7333 80.907295L168.7333 90.656296C 168.7333 91.09129 168.8083 91.2783 168.9623 91.449295C 169.1013 91.604294 169.2913 91.7383 169.5363 91.77129L169.5363 91.77129L169.5363 91.95329L169.5363 91.95329L165.6943 91.95329L165.6943 91.95329L165.6943 91.77129C 165.9403 91.7383 166.1293 91.604294 166.2693 91.449295C 166.4223 91.2783 166.4973 91.09129 166.4973 90.656296L166.4973 90.656296L166.4973 80.907295C 166.4973 80.657295 166.5013 80.3303 166.3083 80.128296C 166.1503 79.961296 165.89731 79.8903 165.6933 79.8613L165.6933 79.8613L165.6933 79.673294L165.6933 79.673294L169.53731 79.673294L169.53731 79.673294L169.53731 79.8613C 169.3323 79.8853 169.0813 79.961296 168.9223 80.128296" stroke="none" fill="#000000" fill-rule="winding" /><path transform="matrix(1 0 0 -1 0 697)" clip-path="url(#12)" d="M178.5403 82.837296C 178.4893 82.576294 178.3553 82.13429 178.0493 81.82829C 177.7433 81.52229 177.4763 81.447296 176.7563 81.447296C 176.17929 81.447296 174.8763 81.447296 174.3793 81.447296L174.3793 81.447296L174.3793 90.656296C 174.3793 91.09129 174.45529 91.2783 174.6073 91.449295C 174.7473 91.604294 175.0073 91.74329 175.3283 91.77129L175.3283 91.77129L175.3283 91.95329L175.3283 91.95329L171.3413 91.95329L171.3413 91.95329L171.3413 91.77129C 171.5863 91.7383 171.7753 91.604294 171.9153 91.449295C 172.0683 91.2783 172.1413 91.0713 172.1443 90.656296L172.1443 90.656296L172.1443 80.907295C 172.1443 80.657295 172.1473 80.33029 171.9543 80.128296C 171.7963 79.962296 171.5473 79.88529 171.3393 79.8613L171.3393 79.8613L171.3393 79.673294L171.3393 79.673294L178.4973 79.673294L178.4973 79.673294L178.7253 82.8203L178.7253 82.8203L178.5403 82.837296" stroke="none" fill="#000000" fill-rule="winding" /><path transform="matrix(1 0 0 -1 0 697)" clip-path="url(#13)" d="M187.0573 82.8403C 187.0063 82.5793 186.8683 82.0773 186.5613 81.7713C 186.2553 81.4653 185.9893 81.391304 185.2683 81.391304C 184.69229 81.391304 182.8933 81.391304 182.3963 81.391304L182.3963 81.391304L182.3963 85.3093L182.3963 85.3093L184.6803 85.3093C 185.1153 85.3093 185.33229 85.2083 185.5023 85.0553C 185.6583 84.9163 185.8133 84.6473 185.8463 84.4023L185.8463 84.4023L186.0213 84.4023L186.0213 84.4023L186.0213 87.8653L186.0213 87.8653L185.8463 87.8653C 185.8133 87.6193 185.6723 87.3713 185.5173 87.2323C 185.34729 87.0793 185.1613 87.0033 184.7263 87.0033L184.7263 87.0033L182.3963 87.0033L182.3963 87.0033L182.3963 90.293304C 183.08029 90.293304 185.0763 90.293304 185.26529 90.293304C 185.4923 90.293304 185.9393 90.293304 186.24629 89.9863C 186.5533 89.6803 186.5583 89.3853 186.5923 89.182304L186.5923 89.182304L186.7703 89.196304L186.7703 89.196304L186.7173 91.9533L186.7173 91.9533L179.3563 91.9533L179.3563 91.9533L179.3563 91.7713C 179.6023 91.738304 179.7923 91.6043 179.9323 91.4493C 180.0853 91.278305 180.1613 91.0913 180.1613 90.6563L180.1613 90.6563L180.1613 80.9073C 180.1613 80.6573 180.16429 80.3303 179.97229 80.1283C 179.8133 79.9623 179.5603 79.8823 179.3563 79.8613L179.3563 79.8613L179.3563 79.6743L179.3563 79.6743L187.0103 79.6743L187.0103 79.6743L187.23729 82.820305L187.23729 82.820305L187.0573 82.8403" stroke="none" fill="#000000" fill-rule="winding" /><path transform="matrix(1 0 0 -1 0 697)" clip-path="url(#14)" d="M194.6253 91.95329L194.6253 91.77129C 194.8553 91.73029 195.0793 91.66729 195.2023 91.41329C 195.3313 91.14829 195.2333 90.80029 195.0583 90.45329C 194.85631 90.05029 193.62831 87.729294 193.4313 87.35929C 193.2353 86.9883 193.1373 86.8073 193.0993 86.656296C 193.06131 86.504295 193.00931 86.49629 192.9713 86.66329C 192.9333 86.83029 192.8043 87.07929 192.6613 87.336296C 192.5173 87.59429 190.8853 90.57029 190.78531 90.76229C 190.63431 91.05029 190.5363 91.32929 190.6633 91.54229C 190.78731 91.75029 190.9373 91.74629 191.1083 91.77129L191.1083 91.77129L191.1083 91.95329L191.1083 91.95329L187.3183 91.95329L187.3183 91.95329L187.3183 91.77129C 187.48831 91.7383 187.6033 91.684296 187.7473 91.562294C 187.89531 91.437294 187.99431 91.31429 188.13031 91.08029C 188.2583 90.85929 191.3473 85.53729 191.7043 84.921295L191.7043 84.921295L191.7043 80.908295C 191.7043 80.658295 191.7083 80.33029 191.5153 80.128296C 191.35631 79.962296 191.1083 79.88529 190.8993 79.86129L190.8993 79.86129L190.8993 79.67429L190.8993 79.67429L194.7433 79.67429L194.7433 79.67429L194.7433 79.86129C 194.5263 79.88529 194.28731 79.962296 194.12831 80.128296C 193.9353 80.33029 193.9393 80.658295 193.9393 80.908295L193.9393 80.908295L193.9393 84.91829L193.9393 84.91829L197.1553 90.74629C 197.3143 91.033295 197.57031 91.423294 197.73131 91.56829C 197.9033 91.72329 198.0553 91.74929 198.17331 91.77129L198.17331 91.77129L198.17331 91.95329L198.17331 91.95329L194.6253 91.95329" stroke="none" fill="#000000" fill-rule="winding" /><path transform="matrix(1 0 0 -1 0 697)" clip-path="url(#15)" d="M152.6603 91.95329L148.76329 91.95329L148.76329 91.95329L148.76329 91.77129C 148.92729 91.74929 149.17429 91.684296 149.4153 91.42729C 149.6353 91.19129 149.7103 91.01229 149.8463 90.72329C 149.98329 90.4333 154.0483 81.01329 154.2753 80.48329C 154.50229 79.95529 154.7443 79.44329 154.8003 79.28929L154.8003 79.28929L155.0013 79.28829C 155.0013 79.28829 155.2593 79.80329 155.51529 80.43829C 155.7723 81.073296 156.83429 83.54129 156.93729 83.797295C 157.11829 84.24329 157.21529 84.55329 157.24129 84.68929C 157.26129 84.80129 157.29529 84.809296 157.3183 84.686295C 157.3413 84.56629 157.4713 84.15329 157.6113 83.782295C 157.72629 83.47429 158.8803 80.77429 159.07129 80.3483C 159.2643 79.91629 159.51129 79.41329 159.5613 79.28929L159.5613 79.28929L159.7733 79.28929C 159.90129 79.66029 160.08429 80.00729 160.2513 80.422295C 160.4173 80.839294 164.0633 90.256294 164.23729 90.70929C 164.4023 91.142296 164.5223 91.364296 164.66629 91.49529C 164.8633 91.672295 165.05829 91.74429 165.24829 91.77129L165.24829 91.77129L165.24829 91.95329L165.24829 91.95329L161.8283 91.95329L161.8283 91.95329L161.8283 91.77129C 161.9813 91.74329 162.19429 91.70429 162.3263 91.505295C 162.46329 91.30229 162.3673 90.864296 162.2593 90.56429C 162.0763 90.05429 160.1483 84.45429 160.1483 84.45429C 160.0573 84.11929 159.99329 83.85629 159.9583 83.697296C 159.92429 83.53829 159.87929 83.52629 159.84529 83.69229C 159.81729 83.82929 159.7453 84.04029 159.5813 84.4883C 159.5813 84.4883 158.56529 86.8913 158.4923 87.0303C 158.4543 87.101295 158.3843 87.23229 158.3563 87.27229C 158.3263 87.31329 158.3223 87.33129 158.36229 87.38729C 158.3973 87.43829 158.46529 87.601295 158.5033 87.687294C 158.58429 87.87429 159.85329 90.91129 159.9323 91.103294C 160.01329 91.296295 160.13629 91.506294 160.2513 91.602295C 160.3553 91.69029 160.45729 91.74929 160.6043 91.77129L160.6043 91.77129L160.6043 91.95329L160.6043 91.95329L157.8763 91.95329L157.8763 91.95329L157.8763 91.77129C 158.0613 91.74429 158.2013 91.66329 158.2683 91.52229C 158.33029 91.392296 158.3223 91.156296 158.2313 90.92929C 158.14029 90.70229 157.7473 89.69629 157.70929 89.545296C 157.6713 89.394295 157.6413 89.310295 157.6333 89.227295C 157.6263 89.144295 157.56529 89.12129 157.5513 89.227295C 157.5353 89.33329 157.5203 89.447296 157.4673 89.56729C 157.41429 89.68829 156.9733 90.82129 156.92029 90.99529C 156.8483 91.23329 156.8503 91.47229 156.9663 91.59729C 157.0963 91.7383 157.2473 91.756294 157.37529 91.77129L157.37529 91.77129L157.37529 91.95329L157.37529 91.95329L153.8133 91.95329L153.8133 91.95329L153.8133 91.77129C 154.0103 91.74929 154.1413 91.66429 154.24329 91.55129C 154.36829 91.41229 154.4343 91.28529 154.5483 90.95929C 154.6613 90.63429 156.25429 86.964294 156.32529 86.822296C 156.3783 86.71629 156.4113 86.65329 156.4303 86.61829C 156.47629 86.53829 156.47629 86.52329 156.42729 86.44429C 156.38629 86.37729 156.32529 86.239296 156.2343 86.03529C 156.1653 85.880295 155.6063 84.59129 155.51529 84.364296C 155.4253 84.13729 155.2753 83.80229 155.2493 83.6693C 155.22429 83.534294 155.19429 83.52629 155.15929 83.67629C 155.1193 83.8483 155.04729 84.076294 154.8803 84.393295C 154.7143 84.711296 152.37729 90.3913 152.2403 90.69529C 152.1043 90.99729 152.0573 91.35629 152.17229 91.52529C 152.2863 91.69329 152.4623 91.756294 152.6603 91.77129L152.6603 91.77129L152.6603 91.95329" stroke="none" fill="#000000" fill-rule="winding" /><path transform="matrix(1 0 0 -1 0 697)" clip-path="url(#16)" d="M196.96931 85.137314C 196.96931 85.137314 196.92131 85.17432 196.81032 85.244316C 196.81032 85.244316 197.19331 85.94531 197.38931 86.286316C 197.59032 86.635315 197.80931 87.00131 197.96732 87.079315C 198.12631 87.15932 198.29732 87.15932 198.54631 87.15932C 198.79631 87.15932 200.82732 87.11431 201.11032 87.11431C 201.39432 87.11431 201.61931 87.11631 201.7463 87.18231C 201.88231 87.25331 201.96132 87.34731 202.01831 87.42031L202.01831 87.42031L202.15431 87.34731C 202.15431 87.34731 201.81432 86.649315 201.63231 86.29732C 201.45131 85.94531 201.30731 85.606316 201.14832 85.48931C 201.00032 85.38132 200.08931 85.412315 199.19331 85.44631C 198.42232 85.47531 197.83131 85.480316 197.61632 85.45831C 197.40132 85.43431 197.19632 85.387314 196.96931 85.137314" stroke="none" fill="#000000" fill-rule="winding" /><path transform="matrix(1 0 0 -1 0 697)" clip-path="url(#17)" d="M148.4263 85.88431C 148.4263 82.36331 147.3923 80.44331 145.6643 79.16431C 144.4233 78.24531 142.8193 77.79631 140.9363 77.79631C 139.1033 77.79631 137.3233 78.24031 135.9803 79.37531C 134.5593 80.57731 133.5113 82.387314 133.5113 85.86331C 133.5113 88.76531 134.2303 90.58331 135.5143 91.88031C 137.0513 93.43231 139.1783 93.88331 140.9823 93.88331C 142.7923 93.88331 144.5113 93.46331 146.0143 92.24831C 147.4363 91.09931 148.4263 89.08331 148.4263 85.88431M145.7713 92.03331C 144.6853 92.94431 143.4743 93.35631 140.9823 93.35631C 138.1743 93.35631 136.7543 92.72631 135.75931 91.63631C 134.6213 90.38931 134.1453 88.63631 134.1453 85.87431C 134.1453 83.60531 134.4583 81.34131 135.8263 79.97431C 137.0183 78.78231 138.4543 78.33931 140.9523 78.33931C 143.2663 78.33931 144.6943 78.62231 145.9313 79.83531C 147.2583 81.137314 147.7883 82.90731 147.7883 85.87431C 147.7883 88.91831 147.0893 90.92831 145.7713 92.03331z" stroke="none" fill="#000000" fill-rule="winding" /><path transform="matrix(1 0 0 -1 0 697)" clip-path="url(#18)" d="M145.37631 89.11731L145.37631 89.02431C 145.37631 89.02431 145.60031 89.00231 145.74332 88.81931C 145.88731 88.636314 145.92532 88.37831 145.76631 87.93731C 145.58931 87.44431 144.37831 84.68631 144.16232 84.25331C 144.04932 84.025314 143.96732 83.73131 143.94232 83.60531C 143.93231 83.55531 143.90231 83.55131 143.88731 83.60531C 143.86731 83.67931 143.61032 84.053314 143.48032 84.23631C 143.35532 84.41231 142.56532 85.36031 141.75932 86.32131C 141.71431 86.37431 141.65532 86.43931 141.60132 86.48831C 141.56432 86.52031 141.56432 86.52631 141.61032 86.56031C 141.68132 86.62831 141.70532 86.66331 141.75932 86.73031C 142.56331 87.75031 143.21031 88.60231 143.26831 88.67631C 143.43031 88.88031 143.57231 89.03331 143.65231 89.08331L143.65231 89.08331L143.65231 89.11731L143.65231 89.11731L141.63432 89.11731C 141.63832 89.70331 141.63931 90.19931 141.64732 90.37731C 141.67532 91.03031 141.74432 91.30531 142.08331 91.68931C 142.25432 91.88431 142.40732 91.98331 142.40732 91.98331C 142.38231 92.02831 142.37231 92.05231 142.37231 92.05231C 142.21732 91.969315 141.88231 91.95331 141.52132 91.95331C 141.16031 91.95331 139.98631 91.97531 139.45932 91.97531C 138.93231 91.97531 138.60031 91.85631 138.35332 91.63831C 138.11932 91.43131 137.87231 90.94431 137.84932 90.86431L137.84932 90.86431L137.91531 90.82131C 138.00131 90.91331 138.19832 91.08231 138.42232 91.15631C 138.68831 91.24531 138.92632 91.27131 139.25832 91.27131C 139.59032 91.27131 140.42131 91.248314 140.66832 91.248314C 140.91432 91.248314 141.11432 91.26531 141.24632 91.30031C 141.38332 91.33531 141.44131 91.35731 141.49832 91.39131C 141.59831 91.45131 141.61932 91.38031 141.53831 91.317314C 141.48332 91.27431 141.36331 91.164314 141.24632 91.03031C 140.96532 90.70931 140.73032 90.33731 140.73032 89.53031C 140.73032 89.414314 140.73132 89.275314 140.73132 89.11731L140.73132 89.11731L138.25531 89.11731L138.25531 89.11731L138.25531 89.081314C 138.25531 89.081314 138.46231 88.93931 138.73132 88.61331C 138.84131 88.47931 139.60431 87.56431 140.47931 86.498314C 140.52031 86.44931 140.60931 86.36231 140.65031 86.31231C 140.69632 86.29031 140.67932 86.25631 140.65332 86.247314C 140.59332 86.17131 140.56032 86.14731 140.48132 86.05031C 139.65631 85.02231 138.88931 84.02231 138.82332 83.92131C 138.67932 83.70431 138.63632 83.64531 138.59831 83.56231C 138.56232 83.48731 138.52731 83.442314 138.50432 83.54431C 138.48232 83.64831 138.44531 83.82931 138.25531 84.25331C 138.06631 84.67731 136.52531 87.845314 136.40532 88.09231C 136.23532 88.44131 136.28531 88.67631 136.38832 88.82431C 136.46031 88.92931 136.57732 88.99631 136.69131 89.02231L136.69131 89.02231L136.69131 89.11731L136.69131 89.11731L134.72131 89.11731L134.72131 89.11731L134.72131 89.02231C 134.72131 89.02231 134.83232 88.99931 134.89632 88.942314C 134.96732 88.87731 135.07631 88.69031 135.14232 88.57431C 135.37132 88.17331 137.92032 82.94331 138.03232 82.69531C 138.21431 82.29531 138.23732 82.19631 138.23732 82.19631L138.23732 82.19631L138.27731 82.19631C 138.27731 82.19631 138.54631 82.60531 138.95532 83.11931C 139.08032 83.27631 139.75932 84.21331 140.57332 85.25531C 140.63332 85.331314 140.69632 85.40131 140.73532 85.48631C 140.75731 85.53231 140.78632 85.52731 140.77332 85.470314C 140.76532 85.43331 140.75932 85.19831 140.75932 85.16131C 140.76831 83.67531 140.79031 82.05931 140.79932 81.19431C 140.81131 80.13431 140.55931 79.81331 140.02031 79.81331C 139.87132 79.81331 139.72232 79.86531 139.64732 79.92631C 139.56732 79.99131 139.52832 80.11231 139.71031 80.15731C 139.89032 80.20131 140.04932 80.39131 140.05232 80.69031C 140.05632 80.98231 139.83632 81.28531 139.43631 81.28031C 139.00632 81.27431 138.70532 80.93031 138.70532 80.43231C 138.70532 80.04231 139.00632 79.36631 140.05531 79.37831C 141.29231 79.39231 141.60532 80.39431 141.64932 80.87131C 141.68431 81.24331 141.67831 81.57531 141.67831 82.16031C 141.67831 82.54931 141.66232 83.72331 141.64531 84.76631C 141.64432 84.83631 141.64432 84.98631 141.63432 85.05931C 141.61832 85.14331 141.64732 85.15431 141.67831 85.08031C 141.71832 84.98631 141.79132 84.87531 141.81331 84.845314C 142.63231 83.83231 143.27832 83.025314 143.38931 82.88431C 143.75932 82.41031 143.89932 82.19631 143.89932 82.19631L143.89932 82.19631L143.95131 82.19631C 143.95131 82.19631 144.08032 82.59031 144.24132 82.92231C 144.40732 83.26631 146.59032 88.16531 146.67732 88.34931C 146.76932 88.54431 146.90532 88.78831 146.99731 88.87131C 147.06631 88.93131 147.15431 89.00231 147.25032 89.02431L147.25032 89.02431L147.25032 89.11731L147.25032 89.11731L145.37631 89.11731M142.50232 88.70831C 142.53232 88.70731 142.58232 88.70731 142.60031 88.70931C 142.64632 88.71531 142.65532 88.71031 142.60931 88.66631C 142.58032 88.637314 142.50032 88.56031 142.44832 88.50131C 142.43631 88.48831 142.17632 88.178314 141.81131 87.71931C 141.74931 87.64131 141.70332 87.58531 141.65132 87.49331C 141.62032 87.428314 141.59631 87.43231 141.61331 87.525314C 141.62132 87.59631 141.62431 87.71631 141.62532 87.81331C 141.62631 88.10231 141.63231 88.41131 141.63332 88.70831C 141.63332 88.70831 142.44331 88.70931 142.50232 88.70831zM140.73032 87.49031C 140.68732 87.57931 140.52232 87.79131 140.50032 87.81831C 140.11632 88.27431 139.95532 88.46931 139.91132 88.52731C 139.87431 88.57531 139.82932 88.63431 139.80132 88.66031C 139.75832 88.70031 139.76532 88.71931 139.81732 88.71431C 139.84831 88.70931 139.90732 88.70931 139.94131 88.70831L139.94131 88.70831L140.74632 88.70831C 140.74731 88.41631 140.75131 88.16131 140.75432 87.81331C 140.75432 87.68731 140.75531 87.60431 140.76532 87.51331C 140.78232 87.42331 140.75632 87.43731 140.73032 87.49031z" stroke="none" fill="#000000" fill-rule="winding" /><path transform="matrix(1 0 0 -1 0 697)" clip-path="url(#19)" d="M208.88931 92.09831C 210.78131 92.09831 212.01332 91.011314 212.01332 89.37931C 212.01332 88.12731 211.29831 87.18431 209.88931 86.53131C 211.88731 86.023315 212.74431 85.080315 212.74431 83.37531C 212.74431 82.21431 212.26332 81.21632 211.42432 80.65531C 210.79932 80.23831 209.74632 80.00131 208.47832 80.00131L208.47832 80.00131L204.01631 80.00131C 204.99832 80.383316 205.14131 80.60031 205.14131 81.761314L205.14131 81.761314L205.14131 90.34032C 205.14131 91.50031 204.99832 91.717316 204.01631 92.09831L204.01631 92.09831L208.88931 92.09831M206.92632 87.16631L207.92531 87.16631C 209.08632 87.16631 209.94232 87.96431 209.94232 89.08831C 209.94232 90.14031 209.17432 90.884315 208.08632 90.884315L208.08632 90.884315L206.92632 90.884315L206.92632 90.884315L206.92632 87.16631zM206.92632 82.48631C 206.92632 81.72531 207.15831 81.45232 207.81831 81.45232L207.81831 81.45232L208.58632 81.45232C 209.81831 81.45232 210.62132 82.26831 210.62132 83.50231C 210.62132 84.82631 209.55031 85.69731 207.94331 85.69731L207.94331 85.69731L206.92632 85.69731L206.92632 85.69731L206.92632 82.48631z" stroke="none" fill="#000000" fill-rule="winding" /><path transform="matrix(1 0 0 -1 0 697)" clip-path="url(#20)" d="M204.01631 92.30432L203.92831 91.90932C 204.7913 91.57432 204.91531 91.453316 204.91531 90.33932L204.91531 90.33932L204.91531 81.76132C 204.91531 80.647316 204.7913 80.52732 203.92831 80.191315L203.92831 80.191315L204.01631 79.79532L204.01631 79.79532L208.47832 79.79532C 209.79431 79.79532 210.8883 80.04232 211.55632 80.48832C 212.45432 81.09032 212.9703 82.14232 212.9703 83.37432C 212.9703 85.02532 212.1643 86.02732 210.40231 86.59032C 211.59831 87.27032 212.23831 88.19632 212.23831 89.37832C 212.23831 91.12832 210.89232 92.30432 208.88931 92.30432L208.88931 92.30432L204.01631 92.30432M208.88931 91.89232C 210.65031 91.89232 211.78731 90.90632 211.78731 89.37832C 211.78731 88.20932 211.13332 87.33832 209.78632 86.71532L209.78632 86.71532L209.26732 86.47532L209.26732 86.47532L209.82732 86.33232C 211.73932 85.84732 212.51831 84.99032 212.51831 83.37432C 212.51831 82.27432 212.07132 81.34332 211.29031 80.82132C 210.7073 80.43232 209.68231 80.20732 208.47832 80.20732C 208.47832 80.20732 205.95331 80.20732 204.85031 80.20732C 205.25432 80.51332 205.36632 80.90832 205.36632 81.76132L205.36632 81.76132L205.36632 90.33932C 205.36632 91.19232 205.25432 91.58832 204.85031 91.89232C 205.99731 91.89232 208.88931 91.89232 208.88931 91.89232z" stroke="none" fill="#000000" fill-rule="winding" /><path transform="matrix(1 0 0 -1 0 697)" clip-path="url(#21)" d="M206.70032 91.09032L206.70032 86.96031L206.70032 86.96031L207.92432 86.96031C 209.22432 86.96031 210.16731 87.855316 210.16731 89.08832C 210.16731 90.248314 209.29231 91.09032 208.08531 91.09032L208.08531 91.09032L206.70032 91.09032M208.08531 90.678314C 209.04532 90.678314 209.71631 90.024315 209.71631 89.08832C 209.71631 88.094315 208.96332 87.372314 207.92432 87.372314C 207.92432 87.372314 207.42131 87.372314 207.15031 87.372314C 207.15031 87.718315 207.15031 90.33231 207.15031 90.678314C 207.44331 90.678314 208.08531 90.678314 208.08531 90.678314z" stroke="none" fill="#000000" fill-rule="winding" /><path transform="matrix(1 0 0 -1 0 697)" clip-path="url(#22)" d="M206.70029 85.90332L206.70029 82.48632C 206.70029 81.843315 206.8353 81.246315 207.81729 81.246315L207.81729 81.246315L208.5853 81.246315C 209.93729 81.246315 210.84529 82.15332 210.84529 83.50232C 210.84529 84.93832 209.67929 85.90332 207.94229 85.90332L207.94229 85.90332L206.70029 85.90332M207.94229 85.49132C 209.4323 85.49132 210.39429 84.71032 210.39429 83.50232C 210.39429 82.383316 209.6843 81.65932 208.5853 81.65932L208.5853 81.65932L207.81729 81.65932C 207.34729 81.65932 207.15028 81.774315 207.15028 82.48632C 207.15028 82.48632 207.15028 85.13032 207.15028 85.49132C 207.42429 85.49132 207.94229 85.49132 207.94229 85.49132z" stroke="none" fill="#000000" fill-rule="winding" /><path transform="matrix(1 0 0 -1 0 697)" clip-path="url(#23)" d="M242.6963 80.00131C 243.75731 80.38231 243.91031 80.60031 243.91031 81.761314L243.91031 81.761314L243.91031 90.33931C 243.91031 91.50031 243.75731 91.717316 242.6963 92.09831L242.6963 92.09831L247.07231 92.09831C 246.0123 91.73631 245.85631 91.50031 245.85631 90.33931L245.85631 90.33931L245.85631 86.440315L245.85631 86.440315L249.47931 90.99231C 249.8453 91.46431 249.9043 91.55431 249.9043 91.68131C 249.9043 91.86331 249.7303 91.99031 249.28731 92.09831L249.28731 92.09831L253.2763 92.09831C 252.25531 91.73631 252.06131 91.59131 251.2523 90.61131L251.2523 90.61131L248.0533 86.65831L248.0533 86.65831L251.1373 82.56031C 252.56331 80.61931 252.8723 80.34631 253.9693 80.00131L253.9693 80.00131L249.47931 80.00131C 249.86531 80.20131 250.0193 80.34631 250.0193 80.60031C 250.0193 80.872314 249.8453 81.25331 249.47931 81.72531L249.47931 81.72531L245.85631 86.440315L245.85631 86.440315L245.85631 81.761314C 245.85631 80.60031 246.0123 80.36531 247.07231 80.00131L247.07231 80.00131L242.6963 80.00131" stroke="none" fill="#000000" fill-rule="winding" /><path transform="matrix(1 0 0 -1 0 697)" clip-path="url(#24)" d="M249.2873 92.30432L249.2193 91.90032C 249.4213 91.85132 249.6603 91.773315 249.6603 91.68132C 249.6603 91.61832 249.61229 91.53932 249.27629 91.105316C 249.27629 91.105316 247.0643 88.32632 246.09929 87.11432C 246.09929 88.037315 246.09929 90.33932 246.09929 90.33932C 246.09929 91.42032 246.2103 91.58132 247.1623 91.90732L247.1623 91.90732L247.0723 92.30432L247.0723 92.30432L242.69629 92.30432L242.69629 92.30432L242.60129 91.90932C 243.5333 91.57432 243.66829 91.453316 243.66829 90.33932L243.66829 90.33932L243.66829 81.76132C 243.66829 80.647316 243.5333 80.52732 242.60129 80.191315L242.60129 80.191315L242.69629 79.79532L242.69629 79.79532L247.0723 79.79532L247.0723 79.79532L247.1623 80.19232C 246.2103 80.51832 246.09929 80.68032 246.09929 81.76132C 246.09929 81.76132 246.09929 84.73932 246.09929 85.74632C 246.7873 84.85232 249.27629 81.61232 249.27629 81.61232C 249.7123 81.051315 249.77629 80.73732 249.77629 80.60032C 249.77629 80.45632 249.71829 80.36632 249.35329 80.17732L249.35329 80.17732L248.6153 79.79532L248.6153 79.79532L253.9693 79.79532L253.9693 79.79532L254.05429 80.19532C 253.0533 80.509315 252.7873 80.703316 251.3443 82.66832C 251.34329 82.67032 248.8283 86.01332 248.34529 86.65432C 248.51729 86.86532 251.4533 90.495316 251.4533 90.495316C 252.2383 91.44532 252.39929 91.56332 253.3703 91.90932L253.3703 91.90932L253.27629 92.30432L253.27629 92.30432L249.2873 92.30432M246.16429 91.89232C 245.73929 91.59032 245.61429 91.18632 245.61429 90.33932L245.61429 90.33932L245.61429 81.76132C 245.61429 80.91432 245.73929 80.510315 246.16429 80.20732C 245.3203 80.20732 244.4363 80.20732 243.5963 80.20732C 244.0333 80.51332 244.1543 80.90832 244.1543 81.76132L244.1543 81.76132L244.1543 90.33932C 244.1543 91.19232 244.0333 91.58832 243.5963 91.89232C 244.4363 91.89232 245.3203 91.89232 246.16429 91.89232zM252.2853 91.89232C 251.88129 91.661316 251.58029 91.36532 251.0533 90.730316C 251.05229 90.72832 247.76129 86.662315 247.76129 86.662315L247.76129 86.662315L250.93129 82.44832C 251.91429 81.11232 252.38629 80.54932 252.9493 80.20732C 251.9513 80.20732 250.79129 80.20732 250.1073 80.20732C 250.19629 80.32032 250.2623 80.44032 250.2623 80.60032C 250.2623 80.926315 250.0683 81.342316 249.6843 81.83832C 249.6843 81.83832 246.3163 86.22032 246.1483 86.43832C 246.3203 86.65432 249.6823 90.87732 249.6823 90.87732C 250.0533 91.35232 250.1473 91.48532 250.1473 91.68132C 250.1473 91.76332 250.1193 91.83032 250.08429 91.89232C 250.78929 91.89232 251.46529 91.89232 252.2853 91.89232z" stroke="none" fill="#000000" fill-rule="winding" /><path transform="matrix(1 0 0 -1 0 697)" clip-path="url(#25)" d="M220.6753 82.96031C 220.6243 82.69831 220.4903 82.25631 220.1843 81.95031C 219.8783 81.64431 219.61229 81.56931 218.8913 81.56931C 218.31529 81.56931 217.01129 81.56931 216.5143 81.56931L216.5143 81.56931L216.5143 90.77831C 216.5143 91.21331 216.5893 91.400314 216.74129 91.57131C 216.8823 91.72631 217.1413 91.86631 217.4623 91.89331L217.4623 91.89331L217.4623 92.07431L217.4623 92.07431L213.4753 92.07431L213.4753 92.07431L213.4753 91.89331C 213.7213 91.86031 213.9103 91.72631 214.0503 91.57131C 214.2033 91.400314 214.2773 91.19331 214.2793 90.77831L214.2793 90.77831L214.2793 81.02831C 214.2793 80.77831 214.28229 80.45331 214.09029 80.25031C 213.93129 80.08431 213.68329 80.00731 213.47429 79.983315L213.47429 79.983315L213.47429 79.79631L213.47429 79.79631L220.6323 79.79631L220.6323 79.79631L220.86029 82.942314L220.86029 82.942314L220.6753 82.96031" stroke="none" fill="#000000" fill-rule="winding" /><path transform="matrix(1 0 0 -1 0 697)" clip-path="url(#26)" d="M286.4203 83.02431C 286.3693 82.75831 286.2353 82.307304 285.92828 81.99431C 285.6233 81.681305 285.3563 81.60731 284.63528 81.60731C 284.0593 81.60731 282.7563 81.60731 282.25928 81.60731L282.25928 81.60731L282.25928 91.00631C 282.25928 91.45031 282.3353 91.6423 282.48828 91.81631C 282.6273 91.974304 282.8863 92.11731 283.20728 92.14531L283.20728 92.14531L283.20728 92.33031L283.20728 92.33031L279.2193 92.33031L279.2193 92.33031L279.2193 92.14531C 279.4653 92.111305 279.65628 91.974304 279.7953 91.81631C 279.9473 91.6423 280.0203 91.431305 280.0243 91.00631L280.0243 91.00631L280.0243 81.054306C 280.0243 80.79831 280.02728 80.46531 279.8343 80.25931C 279.6763 80.08931 279.42828 80.01031 279.2193 79.986305L279.2193 79.986305L279.2193 79.79631L279.2193 79.79631L286.3773 79.79631L286.3773 79.79631L286.60428 83.00731L286.60428 83.00731L286.4203 83.02431" stroke="none" fill="#000000" fill-rule="winding" /><g><path transform="matrix(1 0 0 -1 0 697)" clip-path="url(#27)" d="M294.9023 83.02431C 294.8503 82.75831 294.71732 82.307304 294.41132 81.99431C 294.1043 81.681305 293.83832 81.60731 293.11932 81.60731C 292.54233 81.60731 291.23932 81.60731 290.74033 81.60731L290.74033 81.60731L290.74033 91.00631C 290.74033 91.45031 290.8163 91.6423 290.9693 91.81631C 291.1093 91.974304 291.36832 92.11731 291.6903 92.14531L291.6903 92.14531L291.6903 92.33031L291.6903 92.33031L287.70132 92.33031L287.70132 92.33031L287.70132 92.14531C 287.9493 92.111305 288.1373 91.974304 288.2773 91.81631C 288.42932 91.6423 288.50333 91.431305 288.50632 91.00631L288.50632 91.00631L288.50632 81.054306C 288.50632 80.79831 288.5103 80.46531 288.31732 80.25931C 288.15732 80.08931 287.9103 80.01031 287.70132 79.986305L287.70132 79.986305L287.70132 79.79631L287.70132 79.79631L294.8593 79.79631L294.8593 79.79631L295.0863 83.00731L295.0863 83.00731L294.9023 83.02431" stroke="none" fill="#000000" fill-rule="winding" /></g><path transform="matrix(1 0 0 -1 0 697)" clip-path="url(#28)" d="M278.05627 83.038315C 278.0063 82.774315 277.8683 82.26431 277.5623 81.953316C 277.25528 81.64131 276.9893 81.56831 276.26828 81.56831C 275.69226 81.56831 273.89328 81.56831 273.39526 81.56831L273.39526 81.56831L273.39526 85.54431L273.39526 85.54431L275.68027 85.54431C 276.1143 85.54431 276.33328 85.44331 276.50327 85.287315C 276.65826 85.14632 276.81427 84.872314 276.84528 84.62431L276.84528 84.62431L277.02228 84.62431L277.02228 84.62431L277.02228 88.14031L277.02228 88.14031L276.84528 88.14031C 276.81427 87.89031 276.6743 87.63931 276.51727 87.497314C 276.34827 87.34132 276.16028 87.26431 275.72427 87.26431L275.72427 87.26431L273.39526 87.26431L273.39526 87.26431L273.39526 90.60432C 274.08127 90.60432 276.07828 90.60432 276.26428 90.60432C 276.49228 90.60432 276.93927 90.60432 277.24628 90.29431C 277.55328 89.983315 277.5583 89.68331 277.5923 89.47632L277.5923 89.47632L277.77228 89.49132L277.77228 89.49132L277.71826 92.289314L277.71826 92.289314L270.35727 92.289314L270.35727 92.289314L270.35727 92.105316C 270.60327 92.07131 270.79327 91.93532 270.93228 91.77831C 271.08627 91.605316 271.1613 91.414314 271.1613 90.97331L271.1613 90.97331L271.1613 81.07532C 271.1613 80.82231 271.16528 80.49132 270.97128 80.286316C 270.81326 80.11632 270.56027 80.03532 270.35626 80.01431L270.35626 80.01431L270.35626 79.82432L270.35626 79.82432L278.01028 79.82432L278.01028 79.82432L278.23727 83.01731L278.23727 83.01731L278.05627 83.038315" stroke="none" fill="#000000" fill-rule="winding" /><path transform="matrix(1 0 0 -1 0 697)" clip-path="url(#29)" d="M257.59827 92.30432L253.70126 92.30432L253.70126 92.30432L253.70126 92.12332C 253.86627 92.10132 254.11327 92.03632 254.35327 91.77832C 254.57227 91.54332 254.64827 91.36432 254.78427 91.07432C 254.92227 90.785324 258.98727 81.36432 259.21426 80.83532C 259.43927 80.30532 259.68228 79.79532 259.73828 79.64132L259.73828 79.64132L259.93826 79.64032C 259.93826 79.64032 260.19626 80.15532 260.45425 80.78932C 260.71027 81.42532 261.77127 83.89332 261.87527 84.14732C 262.05627 84.59432 262.15326 84.90432 262.17825 85.04032C 262.19928 85.15132 262.23328 85.160324 262.25726 85.03832C 262.27826 84.91732 262.40927 84.505325 262.54926 84.13332C 262.66428 83.826324 263.81827 81.12532 264.01025 80.699326C 264.20126 80.26732 264.44928 79.76432 264.49927 79.64132L264.49927 79.64132L264.71127 79.64132C 264.84027 80.01132 265.02228 80.35832 265.18826 80.77432C 265.35526 81.19132 269.00128 90.60732 269.17526 91.061325C 269.34128 91.49432 269.46027 91.716324 269.60526 91.84632C 269.80127 92.02332 269.99628 92.09632 270.18628 92.12332L270.18628 92.12332L270.18628 92.30432L270.18628 92.30432L266.76627 92.30432L266.76627 92.30432L266.76627 92.12332C 266.92026 92.09532 267.13226 92.05632 267.26428 91.85832C 267.40128 91.65332 267.30325 91.21732 267.19626 90.91532C 267.01328 90.40632 265.08728 84.80632 265.08728 84.80632C 264.99527 84.47132 264.93027 84.20732 264.89627 84.049324C 264.86227 83.89032 264.81726 83.87932 264.78326 84.04332C 264.75427 84.18132 264.68326 84.39132 264.51926 84.840324C 264.51926 84.840324 263.50327 87.242325 263.43127 87.382324C 263.39227 87.45332 263.32227 87.58432 263.29428 87.62332C 263.26328 87.66532 263.26025 87.68232 263.30026 87.73932C 263.33527 87.79032 263.40427 87.95332 263.44125 88.03932C 263.52228 88.22632 264.79227 91.26232 264.87128 91.45432C 264.95126 91.64732 265.07428 91.85832 265.18826 91.95432C 265.29428 92.04232 265.39526 92.10132 265.54327 92.12332L265.54327 92.12332L265.54327 92.30432L265.54327 92.30432L262.81326 92.30432L262.81326 92.30432L262.81326 92.12332C 262.99927 92.09632 263.13828 92.01532 263.20627 91.87432C 263.26828 91.74432 263.26025 91.507324 263.16928 91.28132C 263.07925 91.05432 262.68527 90.04732 262.64627 89.896324C 262.60925 89.74532 262.58026 89.66232 262.57227 89.57932C 262.56326 89.49532 262.50427 89.47232 262.48828 89.57932C 262.47226 89.68432 262.45825 89.798325 262.40427 89.91932C 262.35226 90.04032 261.91226 91.173325 261.85925 91.34732C 261.78625 91.58532 261.78928 91.82332 261.90427 91.94932C 262.03427 92.090324 262.18628 92.10732 262.31226 92.12332L262.31226 92.12332L262.31226 92.30432L262.31226 92.30432L258.75226 92.30432L258.75226 92.30432L258.75226 92.12332C 258.94928 92.10132 259.07925 92.01632 259.18027 91.90232C 259.30728 91.76332 259.37225 91.63632 259.48425 91.311325C 259.59927 90.98532 261.19125 87.31632 261.26227 87.174324C 261.31528 87.06832 261.34827 87.005325 261.37027 86.96932C 261.41525 86.89032 261.41525 86.87532 261.36526 86.79532C 261.32327 86.729324 261.26227 86.59232 261.17328 86.38732C 261.10327 86.23232 260.54428 84.94232 260.45425 84.715324C 260.36328 84.48832 260.21326 84.15332 260.18726 84.020325C 260.16226 83.88632 260.13126 83.87932 260.09625 84.02832C 260.05728 84.20032 259.98526 84.42832 259.81927 84.74432C 259.65225 85.063324 257.31427 90.743324 257.17825 91.04632C 257.04327 91.34832 256.99527 91.70732 257.11026 91.87732C 257.22427 92.04532 257.40027 92.10732 257.59827 92.12332L257.59827 92.12332L257.59827 92.30432" stroke="none" fill="#000000" fill-rule="winding" /><path transform="matrix(1 0 0 -1 0 697)" clip-path="url(#30)" d="M242.09828 89.14732L242.28128 89.19232L242.28128 89.19232L242.01929 92.14932L242.01929 92.14932L241.97328 92.14932C 241.97328 92.14932 241.77428 91.81932 241.34929 91.91532C 240.71928 92.059326 240.44728 92.34732 238.72928 92.34732C 235.43828 92.34732 232.56029 89.95932 232.64828 85.76633C 232.73029 81.80332 235.75728 79.56532 239.02428 79.65433C 240.53629 79.69632 241.05627 79.94632 241.28629 80.032326C 241.55928 80.13732 241.83829 80.326324 242.04228 80.229324C 242.04228 80.229324 242.53128 82.48732 242.68929 82.98632L242.68929 82.98632L242.50728 83.05432C 242.50728 83.05432 241.74728 81.56832 239.20628 81.56832C 236.66428 81.56832 235.25429 83.396324 235.00829 85.448326C 234.74329 87.66532 235.83228 90.53932 239.00928 90.53932C 241.39128 90.53932 242.09828 89.14732 242.09828 89.14732" stroke="none" fill="#000000" fill-rule="winding" /><path transform="matrix(1 0 0 -1 0 697)" clip-path="url(#31)" d="M233.4873 80.48432C 233.2473 80.71932 233.1643 80.89832 233.0143 81.188324C 232.8653 81.477325 228.3983 90.89732 228.1493 91.42732C 227.8993 91.95632 227.6343 92.46732 227.5733 92.62132L227.5733 92.62132L227.3513 92.62232C 227.3513 92.62232 227.0703 92.10732 226.7853 91.47232C 226.5043 90.83632 225.3383 88.368324 225.2263 88.11432L225.2263 88.11432L223.6603 84.52332C 223.6203 84.47232 223.5463 84.31032 223.5043 84.22232C 223.4153 84.03632 222.0203 81.00032 221.9333 80.80832C 221.8693 80.66432 221.7763 80.51032 221.6813 80.40032C 221.5953 80.325325 221.4993 80.256325 221.3903 80.19432C 221.3323 80.16832 221.2693 80.14832 221.1963 80.13932L221.1963 80.13932L221.1963 79.95732L221.1963 79.95732L224.1943 79.95732L224.1943 79.95732L224.1943 80.13932C 223.9903 80.16732 223.8343 80.24732 223.7623 80.38732C 223.7353 80.44332 223.7223 80.53232 223.7263 80.59732C 223.7353 80.79232 223.8343 81.00932 223.9183 81.18932L223.9183 81.18932L224.4763 82.47232C 224.9213 83.463326 225.4283 84.59532 225.4523 84.68132L225.4523 84.68132L225.4713 84.69432L225.4713 84.69432L228.7943 84.69432C 228.8003 84.68432 228.8043 84.673325 228.8083 84.66332C 229.5363 83.07132 230.3053 81.37732 230.3863 81.216324C 230.5343 80.91432 230.5853 80.55432 230.4593 80.38432C 230.3353 80.21732 230.1413 80.15532 229.9243 80.13932L229.9243 80.13932L229.9243 79.95732L229.9243 79.95732L234.2053 79.95732L234.2053 79.95732L234.2053 80.13932C 234.0253 80.16132 233.7543 80.22632 233.4873 80.48432M227.3293 86.41432C 226.9783 86.41732 226.5963 86.41932 226.4033 86.41432L226.4033 86.41432L226.2583 86.41432C 226.2813 86.54432 226.7003 87.35032 226.7853 87.546326C 226.8863 87.77332 227.0513 88.10832 227.0783 88.241325C 227.1053 88.37532 227.1393 88.38332 227.1793 88.23432C 227.2213 88.062325 227.3023 87.83432 227.4843 87.51732C 227.5293 87.435326 227.7313 87.00932 228.0053 86.41432L228.0053 86.41432L227.3293 86.41432z" stroke="none" fill="#000000" fill-rule="winding" /></g><g></g></g></g><defs><clipPath id="1"><path d="M0 0L484.7243 0L484.7243 697.3223L0 697.3223z" /></clipPath><clipPath id="2"><path d="M0 0L484.7243 0L484.7243 697.3223L0 697.3223z" /></clipPath><clipPath id="3"><path d="M0 0L484.7243 0L484.7243 697.3223L0 697.3223z" /></clipPath><clipPath id="4"><path d="M-34.0157 -34.00067L518.7043 -34.00067L518.7043 731.3383L-34.0157 731.3383z" /></clipPath><clipPath id="5"><path d="M-34.0157 -34.00067L518.7043 -34.00067L518.7043 731.3383L-34.0157 731.3383z" /></clipPath><clipPath id="6"><path d="M-34.0157 -34.00067L518.7043 -34.00067L518.7043 731.3383L-34.0157 731.3383z" /></clipPath><clipPath id="7"><path d="M-34.0157 -34.00067L518.7043 -34.00067L518.7043 731.3383L-34.0157 731.3383z" /></clipPath><clipPath id="8"><path d="M0 0L484.7243 0L484.7243 697.3223L0 697.3223z" /></clipPath><clipPath id="9"><path d="M-8.503702 -8.503723L493.22833 -8.503723L493.22833 705.8263L-8.503702 705.8263z" /></clipPath><clipPath id="10"><path d="M0 0L484.7243 0L484.7243 697.3223L0 697.3223z" /></clipPath><clipPath id="11"><path d="M0 0L484.7243 0L484.7243 697.3223L0 697.3223z" /></clipPath><clipPath id="12"><path d="M0 0L484.7243 0L484.7243 697.3223L0 697.3223z" /></clipPath><clipPath id="13"><path d="M0 0L484.7243 0L484.7243 697.3223L0 697.3223z" /></clipPath><clipPath id="14"><path d="M0 0L484.7243 0L484.7243 697.3223L0 697.3223z" /></clipPath><clipPath id="15"><path d="M0 0L484.7243 0L484.7243 697.3223L0 697.3223z" /></clipPath><clipPath id="16"><path d="M0 0L484.7243 0L484.7243 697.3223L0 697.3223z" /></clipPath><clipPath id="17"><path d="M0 0L484.7243 0L484.7243 697.3223L0 697.3223z" /></clipPath><clipPath id="18"><path d="M0 0L484.7243 0L484.7243 697.3223L0 697.3223z" /></clipPath><clipPath id="19"><path d="M0 0L484.7243 0L484.7243 697.3223L0 697.3223z" /></clipPath><clipPath id="20"><path d="M0 0L484.7243 0L484.7243 697.3223L0 697.3223z" /></clipPath><clipPath id="21"><path d="M0 0L484.7243 0L484.7243 697.3223L0 697.3223z" /></clipPath><clipPath id="22"><path d="M0 0L484.7243 0L484.7243 697.3223L0 697.3223z" /></clipPath><clipPath id="23"><path d="M0 0L484.7243 0L484.7243 697.3223L0 697.3223z" /></clipPath><clipPath id="24"><path d="M0 0L484.7243 0L484.7243 697.3223L0 697.3223z" /></clipPath><clipPath id="25"><path d="M0 0L484.7243 0L484.7243 697.3223L0 697.3223z" /></clipPath><clipPath id="26"><path d="M0 0L484.7243 0L484.7243 697.3223L0 697.3223z" /></clipPath><clipPath id="27"><path d="M133.51231 65.36731L295.03033 65.36731L295.03033 93.8833L133.51231 93.8833z" /></clipPath><clipPath id="28"><path d="M0 0L484.7243 0L484.7243 697.3223L0 697.3223z" /></clipPath><clipPath id="29"><path d="M0 0L484.7243 0L484.7243 697.3223L0 697.3223z" /></clipPath><clipPath id="30"><path d="M0 0L484.7243 0L484.7243 697.3223L0 697.3223z" /></clipPath><clipPath id="31"><path d="M0 0L484.7243 0L484.7243 697.3223L0 697.3223z" /></clipPath></defs></svg>